<mxfile host="app.diagrams.net" modified="2020-10-23T14:59:51.612Z" agent="5.0 (Macintosh; Intel Mac OS X 10_15_3) AppleWebKit/537.36 (KHTML, like Gecko) Chrome/86.0.4240.80 Safari/537.36" etag="M6oKOI7xt9zAonPW2WVG" version="13.8.0" type="github">
  <diagram id="261lAa1EZaPhHnJhHldy" name="Page-1">
    <mxGraphModel dx="1583" dy="534" grid="1" gridSize="10" guides="1" tooltips="1" connect="1" arrows="1" fold="1" page="1" pageScale="1" pageWidth="850" pageHeight="1100" math="0" shadow="0">
      <root>
        <mxCell id="0" />
        <mxCell id="1" parent="0" />
        <mxCell id="0129Et2WnWzSlYXG0bbk-13" value="" style="ellipse;whiteSpace=wrap;html=1;labelBackgroundColor=#ffffff;opacity=75;fillColor=#f5f5f5;strokeColor=#666666;fontColor=#333333;" parent="1" vertex="1">
          <mxGeometry x="-50" y="310" width="310" height="180" as="geometry" />
        </mxCell>
        <mxCell id="0129Et2WnWzSlYXG0bbk-11" value="" style="ellipse;whiteSpace=wrap;html=1;labelBackgroundColor=#ffffff;opacity=75;fillColor=#dae8fc;strokeColor=#6c8ebf;" parent="1" vertex="1">
          <mxGeometry x="95" y="465" width="145" height="95" as="geometry" />
        </mxCell>
        <mxCell id="-oYrf_uy26-qNpr954tw-61" value="" style="ellipse;whiteSpace=wrap;html=1;rotation=30;fillColor=#e1d5e7;strokeColor=#9673a6;" parent="1" vertex="1">
          <mxGeometry x="346.72" y="173.57" width="415" height="295" as="geometry" />
        </mxCell>
        <mxCell id="-oYrf_uy26-qNpr954tw-57" value="" style="ellipse;whiteSpace=wrap;html=1;fillColor=#d5e8d4;strokeColor=#82b366;direction=south;opacity=75;" parent="1" vertex="1">
          <mxGeometry x="-12.36" y="530" width="902.36" height="482.5" as="geometry" />
        </mxCell>
        <mxCell id="-oYrf_uy26-qNpr954tw-51" value="&lt;b style=&quot;font-size: 20px&quot;&gt;&lt;br&gt;&lt;/b&gt;" style="ellipse;whiteSpace=wrap;html=1;fillColor=#f8cecc;strokeColor=#b85450;opacity=75;" parent="1" vertex="1">
          <mxGeometry x="225" y="350" width="330" height="230" as="geometry" />
        </mxCell>
        <mxCell id="-oYrf_uy26-qNpr954tw-55" value="" style="ellipse;whiteSpace=wrap;html=1;rotation=-30;fillColor=#dae8fc;strokeColor=#6c8ebf;opacity=75;" parent="1" vertex="1">
          <mxGeometry x="672.05" y="377.05" width="232.68" height="460" as="geometry" />
        </mxCell>
        <mxCell id="-oYrf_uy26-qNpr954tw-50" value="&lt;span style=&quot;font-size: 20px&quot;&gt;&lt;b&gt;Hypothalamus&lt;/b&gt;&lt;/span&gt;" style="ellipse;whiteSpace=wrap;html=1;fillColor=#ffe6cc;strokeColor=#d79b00;opacity=75;" parent="1" vertex="1">
          <mxGeometry x="80" y="90" width="361.65" height="330" as="geometry" />
        </mxCell>
        <mxCell id="-oYrf_uy26-qNpr954tw-1" value="Living" style="text;html=1;align=center;verticalAlign=middle;resizable=0;points=[];autosize=1;fontStyle=1" parent="1" vertex="1">
          <mxGeometry x="370" y="50" width="50" height="20" as="geometry" />
        </mxCell>
        <mxCell id="-oYrf_uy26-qNpr954tw-2" value="Self-Preserving" style="text;html=1;align=center;verticalAlign=middle;resizable=0;points=[];autosize=1;fontStyle=1" parent="1" vertex="1">
          <mxGeometry x="260" y="110" width="100" height="20" as="geometry" />
        </mxCell>
        <mxCell id="-oYrf_uy26-qNpr954tw-3" value="Replicating" style="text;html=1;align=center;verticalAlign=middle;resizable=0;points=[];autosize=1;fontStyle=1" parent="1" vertex="1">
          <mxGeometry x="435" y="110" width="80" height="20" as="geometry" />
        </mxCell>
        <mxCell id="-oYrf_uy26-qNpr954tw-4" value="Growing" style="text;html=1;align=center;verticalAlign=middle;resizable=0;points=[];autosize=1;fontStyle=1" parent="1" vertex="1">
          <mxGeometry x="170" y="180" width="60" height="20" as="geometry" />
        </mxCell>
        <mxCell id="-oYrf_uy26-qNpr954tw-5" value="Behaving" style="text;html=1;align=center;verticalAlign=middle;resizable=0;points=[];autosize=1;fontStyle=1" parent="1" vertex="1">
          <mxGeometry x="335" y="180" width="70" height="20" as="geometry" />
        </mxCell>
        <mxCell id="-oYrf_uy26-qNpr954tw-6" value="State Control" style="text;html=1;align=center;verticalAlign=middle;resizable=0;points=[];autosize=1;fontStyle=1" parent="1" vertex="1">
          <mxGeometry x="191.65" y="270" width="90" height="20" as="geometry" />
        </mxCell>
        <mxCell id="-oYrf_uy26-qNpr954tw-7" value="Sensorimotor Control" style="text;html=1;align=center;verticalAlign=middle;resizable=0;points=[];autosize=1;fontStyle=1" parent="1" vertex="1">
          <mxGeometry x="461.65" y="260" width="140" height="20" as="geometry" />
        </mxCell>
        <mxCell id="-oYrf_uy26-qNpr954tw-9" value="Exploiting" style="text;html=1;align=center;verticalAlign=middle;resizable=0;points=[];autosize=1;fontStyle=1" parent="1" vertex="1">
          <mxGeometry x="275" y="445" width="70" height="20" as="geometry" />
        </mxCell>
        <mxCell id="-oYrf_uy26-qNpr954tw-10" value="Exploring" style="text;html=1;align=center;verticalAlign=middle;resizable=0;points=[];autosize=1;fontStyle=1" parent="1" vertex="1">
          <mxGeometry x="420" y="435" width="70" height="20" as="geometry" />
        </mxCell>
        <mxCell id="-oYrf_uy26-qNpr954tw-11" value="Interacting" style="text;html=1;align=center;verticalAlign=middle;resizable=0;points=[];autosize=1;fontStyle=1" parent="1" vertex="1">
          <mxGeometry x="360" y="470" width="80" height="20" as="geometry" />
        </mxCell>
        <mxCell id="-oYrf_uy26-qNpr954tw-12" value="Timing" style="text;html=1;align=center;verticalAlign=middle;resizable=0;points=[];autosize=1;fontStyle=1" parent="1" vertex="1">
          <mxGeometry x="120" y="320" width="50" height="20" as="geometry" />
        </mxCell>
        <mxCell id="-oYrf_uy26-qNpr954tw-13" value="Energy Regulating" style="text;html=1;align=center;verticalAlign=middle;resizable=0;points=[];autosize=1;fontStyle=1" parent="1" vertex="1">
          <mxGeometry x="225" y="300" width="120" height="20" as="geometry" />
        </mxCell>
        <mxCell id="-oYrf_uy26-qNpr954tw-14" value="Sleep" style="text;html=1;align=center;verticalAlign=middle;resizable=0;points=[];autosize=1;fontStyle=1" parent="1" vertex="1">
          <mxGeometry x="190" y="370" width="50" height="20" as="geometry" />
        </mxCell>
        <mxCell id="-oYrf_uy26-qNpr954tw-15" value="Energy Seeking" style="text;html=1;align=center;verticalAlign=middle;resizable=0;points=[];autosize=1;fontStyle=1" parent="1" vertex="1">
          <mxGeometry x="275" y="370" width="110" height="20" as="geometry" />
        </mxCell>
        <mxCell id="-oYrf_uy26-qNpr954tw-16" value="Ingesting" style="text;html=1;align=center;verticalAlign=middle;resizable=0;points=[];autosize=1;fontStyle=1" parent="1" vertex="1">
          <mxGeometry x="355" y="300" width="70" height="20" as="geometry" />
        </mxCell>
        <mxCell id="-oYrf_uy26-qNpr954tw-17" value="Moving" style="text;html=1;align=center;verticalAlign=middle;resizable=0;points=[];autosize=1;fontStyle=1" parent="1" vertex="1">
          <mxGeometry x="555" y="330" width="60" height="20" as="geometry" />
        </mxCell>
        <mxCell id="-oYrf_uy26-qNpr954tw-18" value="Escaping" style="text;html=1;align=center;verticalAlign=middle;resizable=0;points=[];autosize=1;fontStyle=1" parent="1" vertex="1">
          <mxGeometry x="675" y="360" width="70" height="20" as="geometry" />
        </mxCell>
        <mxCell id="-oYrf_uy26-qNpr954tw-19" value="Approaching" style="text;html=1;align=center;verticalAlign=middle;resizable=0;points=[];autosize=1;fontStyle=1" parent="1" vertex="1">
          <mxGeometry x="540" y="400" width="90" height="20" as="geometry" />
        </mxCell>
        <mxCell id="-oYrf_uy26-qNpr954tw-20" value="Intending" style="text;html=1;align=center;verticalAlign=middle;resizable=0;points=[];autosize=1;fontStyle=1" parent="1" vertex="1">
          <mxGeometry x="260" y="530" width="70" height="20" as="geometry" />
        </mxCell>
        <mxCell id="-oYrf_uy26-qNpr954tw-21" value="Generating" style="text;html=1;align=center;verticalAlign=middle;resizable=0;points=[];autosize=1;fontStyle=1" parent="1" vertex="1">
          <mxGeometry x="430" y="530" width="80" height="20" as="geometry" />
        </mxCell>
        <mxCell id="pLKT94hkDXa1pngBb9HN-1" value="" style="rounded=0;orthogonalLoop=1;jettySize=auto;html=1;endArrow=classic;endFill=1;" parent="1" source="-oYrf_uy26-qNpr954tw-33" target="-oYrf_uy26-qNpr954tw-41" edge="1">
          <mxGeometry relative="1" as="geometry" />
        </mxCell>
        <mxCell id="-oYrf_uy26-qNpr954tw-33" value="Levating&lt;br&gt;(Attending)" style="text;html=1;align=center;verticalAlign=middle;resizable=0;points=[];autosize=1;fontStyle=1" parent="1" vertex="1">
          <mxGeometry x="235" y="668.64" width="80" height="30" as="geometry" />
        </mxCell>
        <mxCell id="-oYrf_uy26-qNpr954tw-34" value="Vidating" style="text;html=1;align=center;verticalAlign=middle;resizable=0;points=[];autosize=1;fontStyle=1" parent="1" vertex="1">
          <mxGeometry x="30" y="680" width="60" height="20" as="geometry" />
        </mxCell>
        <mxCell id="-oYrf_uy26-qNpr954tw-35" value="Symmetry&lt;br&gt;Breaking" style="text;html=1;align=center;verticalAlign=middle;resizable=0;points=[];autosize=1;fontStyle=1" parent="1" vertex="1">
          <mxGeometry x="105" y="820" width="70" height="30" as="geometry" />
        </mxCell>
        <mxCell id="-oYrf_uy26-qNpr954tw-36" value="Ordinating" style="text;html=1;align=center;verticalAlign=middle;resizable=0;points=[];autosize=1;fontStyle=1" parent="1" vertex="1">
          <mxGeometry x="160" y="710" width="80" height="20" as="geometry" />
        </mxCell>
        <mxCell id="-oYrf_uy26-qNpr954tw-37" value="Procedural&lt;br&gt;Learning" style="text;html=1;align=center;verticalAlign=middle;resizable=0;points=[];autosize=1;fontStyle=1" parent="1" vertex="1">
          <mxGeometry x="570" y="610" width="80" height="30" as="geometry" />
        </mxCell>
        <mxCell id="-oYrf_uy26-qNpr954tw-38" value="Propositional&lt;br&gt;Learning" style="text;html=1;align=center;verticalAlign=middle;resizable=0;points=[];autosize=1;fontStyle=1" parent="1" vertex="1">
          <mxGeometry x="515.29" y="830" width="90" height="30" as="geometry" />
        </mxCell>
        <mxCell id="-oYrf_uy26-qNpr954tw-39" value="Perspectival&lt;br&gt;Learning" style="text;html=1;align=center;verticalAlign=middle;resizable=0;points=[];autosize=1;fontStyle=1" parent="1" vertex="1">
          <mxGeometry x="300" y="650" width="90" height="30" as="geometry" />
        </mxCell>
        <mxCell id="-oYrf_uy26-qNpr954tw-40" value="Participatory&lt;br&gt;Learning" style="text;html=1;align=center;verticalAlign=middle;resizable=0;points=[];autosize=1;fontStyle=1" parent="1" vertex="1">
          <mxGeometry x="420" y="690" width="90" height="30" as="geometry" />
        </mxCell>
        <mxCell id="-oYrf_uy26-qNpr954tw-41" value="Sharing" style="text;html=1;align=center;verticalAlign=middle;resizable=0;points=[];autosize=1;fontStyle=1" parent="1" vertex="1">
          <mxGeometry x="350" y="770" width="60" height="20" as="geometry" />
        </mxCell>
        <mxCell id="-oYrf_uy26-qNpr954tw-42" value="Coordinating" style="text;html=1;align=center;verticalAlign=middle;resizable=0;points=[];autosize=1;fontStyle=1" parent="1" vertex="1">
          <mxGeometry x="675" y="460" width="90" height="20" as="geometry" />
        </mxCell>
        <mxCell id="-oYrf_uy26-qNpr954tw-43" value="Socializing" style="text;html=1;align=center;verticalAlign=middle;resizable=0;points=[];autosize=1;fontStyle=1" parent="1" vertex="1">
          <mxGeometry x="685" y="800" width="80" height="20" as="geometry" />
        </mxCell>
        <mxCell id="-oYrf_uy26-qNpr954tw-44" value="Imitating" style="text;html=1;align=center;verticalAlign=middle;resizable=0;points=[];autosize=1;fontStyle=1" parent="1" vertex="1">
          <mxGeometry x="690" y="520" width="70" height="20" as="geometry" />
        </mxCell>
        <mxCell id="-oYrf_uy26-qNpr954tw-45" value="Languaging" style="text;html=1;align=center;verticalAlign=middle;resizable=0;points=[];autosize=1;fontStyle=1" parent="1" vertex="1">
          <mxGeometry x="595" y="730" width="80" height="20" as="geometry" />
        </mxCell>
        <mxCell id="-oYrf_uy26-qNpr954tw-46" value="Mind-Reading" style="text;html=1;align=center;verticalAlign=middle;resizable=0;points=[];autosize=1;fontStyle=1" parent="1" vertex="1">
          <mxGeometry x="740" y="690" width="90" height="20" as="geometry" />
        </mxCell>
        <mxCell id="-oYrf_uy26-qNpr954tw-47" value="Navigating" style="text;html=1;align=center;verticalAlign=middle;resizable=0;points=[];autosize=1;fontStyle=1" parent="1" vertex="1">
          <mxGeometry x="555" y="550" width="80" height="20" as="geometry" />
        </mxCell>
        <mxCell id="-oYrf_uy26-qNpr954tw-48" value="Grasping" style="text;html=1;align=center;verticalAlign=middle;resizable=0;points=[];autosize=1;fontStyle=1" parent="1" vertex="1">
          <mxGeometry x="405" y="605" width="70" height="20" as="geometry" />
        </mxCell>
        <mxCell id="-oYrf_uy26-qNpr954tw-49" value="&lt;b&gt;Vocalizing&lt;/b&gt;" style="text;html=1;align=center;verticalAlign=middle;resizable=0;points=[];autosize=1;" parent="1" vertex="1">
          <mxGeometry x="491.65" y="640" width="70" height="20" as="geometry" />
        </mxCell>
        <mxCell id="-oYrf_uy26-qNpr954tw-56" value="&lt;b&gt;Empathizing&lt;/b&gt;" style="text;html=1;align=center;verticalAlign=middle;resizable=0;points=[];autosize=1;" parent="1" vertex="1">
          <mxGeometry x="740" y="600" width="90" height="20" as="geometry" />
        </mxCell>
        <mxCell id="-oYrf_uy26-qNpr954tw-65" value="&lt;font style=&quot;font-size: 20px&quot;&gt;&lt;b&gt;Thalamus&lt;br&gt;&lt;/b&gt;&lt;/font&gt;" style="text;html=1;align=center;verticalAlign=middle;resizable=0;points=[];autosize=1;" parent="1" vertex="1">
          <mxGeometry x="95" y="570" width="110" height="20" as="geometry" />
        </mxCell>
        <mxCell id="-oYrf_uy26-qNpr954tw-69" value="" style="endArrow=none;html=1;exitX=0.589;exitY=-0.05;exitDx=0;exitDy=0;exitPerimeter=0;endFill=0;startArrow=classic;startFill=1;" parent="1" source="-oYrf_uy26-qNpr954tw-2" edge="1">
          <mxGeometry width="50" height="50" relative="1" as="geometry">
            <mxPoint x="320" y="120" as="sourcePoint" />
            <mxPoint x="370" y="70" as="targetPoint" />
          </mxGeometry>
        </mxCell>
        <mxCell id="-oYrf_uy26-qNpr954tw-70" value="" style="endArrow=none;html=1;entryX=1;entryY=1.1;entryDx=0;entryDy=0;entryPerimeter=0;exitX=0.389;exitY=-0.05;exitDx=0;exitDy=0;exitPerimeter=0;startArrow=classic;startFill=1;" parent="1" source="-oYrf_uy26-qNpr954tw-3" target="-oYrf_uy26-qNpr954tw-1" edge="1">
          <mxGeometry width="50" height="50" relative="1" as="geometry">
            <mxPoint x="430" y="120" as="sourcePoint" />
            <mxPoint x="480" y="70" as="targetPoint" />
          </mxGeometry>
        </mxCell>
        <mxCell id="-oYrf_uy26-qNpr954tw-71" value="" style="endArrow=none;html=1;entryX=0.222;entryY=1.2;entryDx=0;entryDy=0;entryPerimeter=0;exitX=0.588;exitY=-0.2;exitDx=0;exitDy=0;exitPerimeter=0;startArrow=classic;startFill=1;" parent="1" source="-oYrf_uy26-qNpr954tw-4" target="-oYrf_uy26-qNpr954tw-2" edge="1">
          <mxGeometry width="50" height="50" relative="1" as="geometry">
            <mxPoint x="210" y="160" as="sourcePoint" />
            <mxPoint x="260" y="110" as="targetPoint" />
          </mxGeometry>
        </mxCell>
        <mxCell id="-oYrf_uy26-qNpr954tw-72" value="" style="endArrow=none;html=1;entryX=0.533;entryY=1.25;entryDx=0;entryDy=0;entryPerimeter=0;exitX=0.271;exitY=-0.2;exitDx=0;exitDy=0;exitPerimeter=0;startArrow=classic;startFill=1;" parent="1" source="-oYrf_uy26-qNpr954tw-5" target="-oYrf_uy26-qNpr954tw-2" edge="1">
          <mxGeometry width="50" height="50" relative="1" as="geometry">
            <mxPoint x="360" y="170" as="sourcePoint" />
            <mxPoint x="430" y="130" as="targetPoint" />
          </mxGeometry>
        </mxCell>
        <mxCell id="-oYrf_uy26-qNpr954tw-74" value="" style="endArrow=none;html=1;exitX=0.733;exitY=0;exitDx=0;exitDy=0;exitPerimeter=0;startArrow=classic;startFill=1;" parent="1" source="-oYrf_uy26-qNpr954tw-6" edge="1">
          <mxGeometry width="50" height="50" relative="1" as="geometry">
            <mxPoint x="300" y="250" as="sourcePoint" />
            <mxPoint x="350" y="200" as="targetPoint" />
          </mxGeometry>
        </mxCell>
        <mxCell id="-oYrf_uy26-qNpr954tw-76" value="" style="endArrow=classic;html=1;exitX=0.714;exitY=1.1;exitDx=0;exitDy=0;exitPerimeter=0;startArrow=none;startFill=0;endFill=1;" parent="1" source="-oYrf_uy26-qNpr954tw-5" edge="1">
          <mxGeometry width="50" height="50" relative="1" as="geometry">
            <mxPoint x="460" y="200" as="sourcePoint" />
            <mxPoint x="510" y="260" as="targetPoint" />
          </mxGeometry>
        </mxCell>
        <mxCell id="-oYrf_uy26-qNpr954tw-78" value="" style="endArrow=none;html=1;exitX=0.714;exitY=0;exitDx=0;exitDy=0;exitPerimeter=0;entryX=0.244;entryY=1.2;entryDx=0;entryDy=0;entryPerimeter=0;startArrow=classic;startFill=1;" parent="1" source="-oYrf_uy26-qNpr954tw-12" target="-oYrf_uy26-qNpr954tw-6" edge="1">
          <mxGeometry width="50" height="50" relative="1" as="geometry">
            <mxPoint x="160" y="340" as="sourcePoint" />
            <mxPoint x="210" y="290" as="targetPoint" />
          </mxGeometry>
        </mxCell>
        <mxCell id="-oYrf_uy26-qNpr954tw-80" value="" style="endArrow=none;html=1;entryX=0.556;entryY=1.1;entryDx=0;entryDy=0;entryPerimeter=0;exitX=0.483;exitY=-0.15;exitDx=0;exitDy=0;exitPerimeter=0;startArrow=classic;startFill=1;" parent="1" source="-oYrf_uy26-qNpr954tw-13" target="-oYrf_uy26-qNpr954tw-6" edge="1">
          <mxGeometry width="50" height="50" relative="1" as="geometry">
            <mxPoint x="320" y="310" as="sourcePoint" />
            <mxPoint x="370" y="260" as="targetPoint" />
          </mxGeometry>
        </mxCell>
        <mxCell id="-oYrf_uy26-qNpr954tw-81" value="" style="endArrow=none;html=1;entryX=0.35;entryY=1.1;entryDx=0;entryDy=0;entryPerimeter=0;startArrow=classic;startFill=1;" parent="1" target="-oYrf_uy26-qNpr954tw-13" edge="1">
          <mxGeometry width="50" height="50" relative="1" as="geometry">
            <mxPoint x="230" y="370" as="sourcePoint" />
            <mxPoint x="240" y="350" as="targetPoint" />
          </mxGeometry>
        </mxCell>
        <mxCell id="-oYrf_uy26-qNpr954tw-82" value="" style="endArrow=none;html=1;entryX=0.442;entryY=1.1;entryDx=0;entryDy=0;entryPerimeter=0;exitX=0.573;exitY=-0.2;exitDx=0;exitDy=0;exitPerimeter=0;startArrow=classic;startFill=1;" parent="1" source="-oYrf_uy26-qNpr954tw-15" target="-oYrf_uy26-qNpr954tw-13" edge="1">
          <mxGeometry width="50" height="50" relative="1" as="geometry">
            <mxPoint x="350" y="340" as="sourcePoint" />
            <mxPoint x="400" y="290" as="targetPoint" />
          </mxGeometry>
        </mxCell>
        <mxCell id="-oYrf_uy26-qNpr954tw-84" value="" style="endArrow=none;html=1;entryX=0.438;entryY=1.15;entryDx=0;entryDy=0;entryPerimeter=0;startArrow=classic;startFill=1;" parent="1" source="-oYrf_uy26-qNpr954tw-16" target="-oYrf_uy26-qNpr954tw-7" edge="1">
          <mxGeometry width="50" height="50" relative="1" as="geometry">
            <mxPoint x="500" y="360" as="sourcePoint" />
            <mxPoint x="550" y="310" as="targetPoint" />
          </mxGeometry>
        </mxCell>
        <mxCell id="-oYrf_uy26-qNpr954tw-85" value="" style="endArrow=none;html=1;entryX=0.56;entryY=1.25;entryDx=0;entryDy=0;entryPerimeter=0;startArrow=classic;startFill=1;" parent="1" target="-oYrf_uy26-qNpr954tw-7" edge="1">
          <mxGeometry width="50" height="50" relative="1" as="geometry">
            <mxPoint x="580" y="320" as="sourcePoint" />
            <mxPoint x="540" y="330" as="targetPoint" />
          </mxGeometry>
        </mxCell>
        <mxCell id="-oYrf_uy26-qNpr954tw-86" value="" style="endArrow=none;html=1;entryX=0.514;entryY=1.1;entryDx=0;entryDy=0;entryPerimeter=0;exitX=0.471;exitY=0.05;exitDx=0;exitDy=0;exitPerimeter=0;startArrow=classic;startFill=1;" parent="1" source="-oYrf_uy26-qNpr954tw-19" target="-oYrf_uy26-qNpr954tw-17" edge="1">
          <mxGeometry width="50" height="50" relative="1" as="geometry">
            <mxPoint x="560" y="400" as="sourcePoint" />
            <mxPoint x="610" y="350" as="targetPoint" />
          </mxGeometry>
        </mxCell>
        <mxCell id="-oYrf_uy26-qNpr954tw-88" value="" style="endArrow=none;html=1;endFill=0;startArrow=classic;startFill=1;" parent="1" target="-oYrf_uy26-qNpr954tw-19" edge="1" source="-oYrf_uy26-qNpr954tw-42">
          <mxGeometry width="50" height="50" relative="1" as="geometry">
            <mxPoint x="720" y="450" as="sourcePoint" />
            <mxPoint x="710" y="290" as="targetPoint" />
          </mxGeometry>
        </mxCell>
        <mxCell id="-oYrf_uy26-qNpr954tw-90" value="" style="endArrow=classic;html=1;exitX=1.057;exitY=0.95;exitDx=0;exitDy=0;exitPerimeter=0;entryX=0.017;entryY=0.6;entryDx=0;entryDy=0;entryPerimeter=0;startArrow=none;startFill=0;endFill=1;" parent="1" source="-oYrf_uy26-qNpr954tw-17" target="-oYrf_uy26-qNpr954tw-18" edge="1">
          <mxGeometry width="50" height="50" relative="1" as="geometry">
            <mxPoint x="640" y="170" as="sourcePoint" />
            <mxPoint x="690" y="330" as="targetPoint" />
          </mxGeometry>
        </mxCell>
        <mxCell id="-oYrf_uy26-qNpr954tw-92" value="" style="endArrow=classic;html=1;entryX=0.5;entryY=-0.05;entryDx=0;entryDy=0;entryPerimeter=0;startArrow=none;startFill=0;endFill=1;" parent="1" source="-oYrf_uy26-qNpr954tw-42" target="-oYrf_uy26-qNpr954tw-44" edge="1">
          <mxGeometry width="50" height="50" relative="1" as="geometry">
            <mxPoint x="960" y="580" as="sourcePoint" />
            <mxPoint x="1010" y="530" as="targetPoint" />
          </mxGeometry>
        </mxCell>
        <mxCell id="-oYrf_uy26-qNpr954tw-96" value="" style="endArrow=none;html=1;exitX=0.429;exitY=-0.15;exitDx=0;exitDy=0;exitPerimeter=0;entryX=0.557;entryY=1.05;entryDx=0;entryDy=0;entryPerimeter=0;startArrow=classic;startFill=1;" parent="1" source="-oYrf_uy26-qNpr954tw-56" target="-oYrf_uy26-qNpr954tw-44" edge="1">
          <mxGeometry width="50" height="50" relative="1" as="geometry">
            <mxPoint x="690" y="550" as="sourcePoint" />
            <mxPoint x="740" y="500" as="targetPoint" />
          </mxGeometry>
        </mxCell>
        <mxCell id="-oYrf_uy26-qNpr954tw-99" value="" style="endArrow=none;html=1;entryX=0.482;entryY=1.15;entryDx=0;entryDy=0;entryPerimeter=0;startArrow=classic;startFill=1;" parent="1" target="-oYrf_uy26-qNpr954tw-15" edge="1">
          <mxGeometry width="50" height="50" relative="1" as="geometry">
            <mxPoint x="300" y="440" as="sourcePoint" />
            <mxPoint x="350" y="390" as="targetPoint" />
          </mxGeometry>
        </mxCell>
        <mxCell id="-oYrf_uy26-qNpr954tw-101" value="" style="endArrow=classic;html=1;exitX=0.555;exitY=1.25;exitDx=0;exitDy=0;exitPerimeter=0;startArrow=none;startFill=0;endFill=1;" parent="1" source="-oYrf_uy26-qNpr954tw-15" edge="1">
          <mxGeometry width="50" height="50" relative="1" as="geometry">
            <mxPoint x="350" y="430" as="sourcePoint" />
            <mxPoint x="390" y="460" as="targetPoint" />
          </mxGeometry>
        </mxCell>
        <mxCell id="-oYrf_uy26-qNpr954tw-102" value="" style="endArrow=classic;html=1;exitX=0.7;exitY=1.15;exitDx=0;exitDy=0;exitPerimeter=0;startArrow=none;startFill=0;endFill=1;" parent="1" source="-oYrf_uy26-qNpr954tw-15" target="-oYrf_uy26-qNpr954tw-10" edge="1">
          <mxGeometry width="50" height="50" relative="1" as="geometry">
            <mxPoint x="380" y="430" as="sourcePoint" />
            <mxPoint x="430" y="380" as="targetPoint" />
          </mxGeometry>
        </mxCell>
        <mxCell id="-oYrf_uy26-qNpr954tw-103" value="" style="endArrow=none;html=1;entryX=0.163;entryY=1.1;entryDx=0;entryDy=0;entryPerimeter=0;exitX=0.564;exitY=-0.25;exitDx=0;exitDy=0;exitPerimeter=0;startArrow=classic;startFill=1;" parent="1" source="-oYrf_uy26-qNpr954tw-20" target="-oYrf_uy26-qNpr954tw-11" edge="1">
          <mxGeometry width="50" height="50" relative="1" as="geometry">
            <mxPoint x="300" y="520" as="sourcePoint" />
            <mxPoint x="350" y="470" as="targetPoint" />
          </mxGeometry>
        </mxCell>
        <mxCell id="-oYrf_uy26-qNpr954tw-104" value="" style="endArrow=none;html=1;entryX=0.55;entryY=1.2;entryDx=0;entryDy=0;entryPerimeter=0;startArrow=classic;startFill=1;" parent="1" source="-oYrf_uy26-qNpr954tw-21" target="-oYrf_uy26-qNpr954tw-11" edge="1">
          <mxGeometry width="50" height="50" relative="1" as="geometry">
            <mxPoint x="310" y="640" as="sourcePoint" />
            <mxPoint x="360" y="590" as="targetPoint" />
          </mxGeometry>
        </mxCell>
        <mxCell id="-oYrf_uy26-qNpr954tw-105" value="" style="endArrow=none;html=1;entryX=0.569;entryY=1.05;entryDx=0;entryDy=0;entryPerimeter=0;startArrow=classic;startFill=1;" parent="1" target="-oYrf_uy26-qNpr954tw-21" edge="1">
          <mxGeometry width="50" height="50" relative="1" as="geometry">
            <mxPoint x="446.18" y="610" as="sourcePoint" />
            <mxPoint x="496.18" y="560" as="targetPoint" />
          </mxGeometry>
        </mxCell>
        <mxCell id="-oYrf_uy26-qNpr954tw-106" value="" style="endArrow=none;html=1;entryX=0.608;entryY=1.25;entryDx=0;entryDy=0;entryPerimeter=0;startArrow=classic;startFill=1;" parent="1" source="-oYrf_uy26-qNpr954tw-49" target="-oYrf_uy26-qNpr954tw-21" edge="1">
          <mxGeometry width="50" height="50" relative="1" as="geometry">
            <mxPoint x="500" y="640" as="sourcePoint" />
            <mxPoint x="550" y="590" as="targetPoint" />
          </mxGeometry>
        </mxCell>
        <mxCell id="-oYrf_uy26-qNpr954tw-107" value="" style="endArrow=none;html=1;entryX=0.5;entryY=1.15;entryDx=0;entryDy=0;entryPerimeter=0;exitX=0.461;exitY=-0.15;exitDx=0;exitDy=0;exitPerimeter=0;endFill=0;startArrow=classic;startFill=1;" parent="1" source="-oYrf_uy26-qNpr954tw-47" target="-oYrf_uy26-qNpr954tw-19" edge="1">
          <mxGeometry width="50" height="50" relative="1" as="geometry">
            <mxPoint x="660" y="560" as="sourcePoint" />
            <mxPoint x="640" y="470" as="targetPoint" />
          </mxGeometry>
        </mxCell>
        <mxCell id="-oYrf_uy26-qNpr954tw-108" value="" style="endArrow=none;html=1;entryX=0.488;entryY=1.25;entryDx=0;entryDy=0;entryPerimeter=0;startArrow=classic;startFill=1;" parent="1" source="-oYrf_uy26-qNpr954tw-37" target="-oYrf_uy26-qNpr954tw-47" edge="1">
          <mxGeometry width="50" height="50" relative="1" as="geometry">
            <mxPoint x="730" y="720" as="sourcePoint" />
            <mxPoint x="635" y="580" as="targetPoint" />
          </mxGeometry>
        </mxCell>
        <mxCell id="-oYrf_uy26-qNpr954tw-111" value="" style="endArrow=none;html=1;entryX=0.688;entryY=1.15;entryDx=0;entryDy=0;entryPerimeter=0;startArrow=classic;startFill=1;" parent="1" target="-oYrf_uy26-qNpr954tw-49" edge="1">
          <mxGeometry width="50" height="50" relative="1" as="geometry">
            <mxPoint x="620" y="730" as="sourcePoint" />
            <mxPoint x="650" y="660" as="targetPoint" />
            <Array as="points">
              <mxPoint x="620" y="730" />
            </Array>
          </mxGeometry>
        </mxCell>
        <mxCell id="-oYrf_uy26-qNpr954tw-112" value="" style="endArrow=none;html=1;exitX=0.486;exitY=0;exitDx=0;exitDy=0;exitPerimeter=0;startArrow=classic;startFill=1;" parent="1" source="-oYrf_uy26-qNpr954tw-45" edge="1">
          <mxGeometry width="50" height="50" relative="1" as="geometry">
            <mxPoint x="730" y="720" as="sourcePoint" />
            <mxPoint x="608" y="640" as="targetPoint" />
          </mxGeometry>
        </mxCell>
        <mxCell id="-oYrf_uy26-qNpr954tw-113" value="" style="endArrow=none;html=1;entryX=0.557;entryY=1.1;entryDx=0;entryDy=0;entryPerimeter=0;startArrow=classic;startFill=1;" parent="1" target="-oYrf_uy26-qNpr954tw-48" edge="1">
          <mxGeometry width="50" height="50" relative="1" as="geometry">
            <mxPoint x="460" y="680" as="sourcePoint" />
            <mxPoint x="465" y="630" as="targetPoint" />
          </mxGeometry>
        </mxCell>
        <mxCell id="-oYrf_uy26-qNpr954tw-114" value="" style="endArrow=none;html=1;entryX=0.538;entryY=1.1;entryDx=0;entryDy=0;entryPerimeter=0;startArrow=classic;startFill=1;" parent="1" target="-oYrf_uy26-qNpr954tw-21" edge="1">
          <mxGeometry width="50" height="50" relative="1" as="geometry">
            <mxPoint x="360" y="640" as="sourcePoint" />
            <mxPoint x="480" y="560" as="targetPoint" />
          </mxGeometry>
        </mxCell>
        <mxCell id="-oYrf_uy26-qNpr954tw-115" value="" style="endArrow=none;html=1;entryX=0.543;entryY=1.1;entryDx=0;entryDy=0;entryPerimeter=0;exitX=0.771;exitY=-0.05;exitDx=0;exitDy=0;exitPerimeter=0;endFill=0;startArrow=classic;startFill=1;" parent="1" source="-oYrf_uy26-qNpr954tw-38" target="-oYrf_uy26-qNpr954tw-45" edge="1">
          <mxGeometry width="50" height="50" relative="1" as="geometry">
            <mxPoint x="700" y="800" as="sourcePoint" />
            <mxPoint x="750" y="750" as="targetPoint" />
          </mxGeometry>
        </mxCell>
        <mxCell id="-oYrf_uy26-qNpr954tw-116" value="Conversing" style="text;html=1;align=center;verticalAlign=middle;resizable=0;points=[];autosize=1;fontStyle=1" parent="1" vertex="1">
          <mxGeometry x="590" y="940" width="80" height="20" as="geometry" />
        </mxCell>
        <mxCell id="-oYrf_uy26-qNpr954tw-117" value="" style="endArrow=none;html=1;entryX=0.486;entryY=1.15;entryDx=0;entryDy=0;entryPerimeter=0;exitX=0.567;exitY=-0.25;exitDx=0;exitDy=0;exitPerimeter=0;endFill=0;startArrow=classic;startFill=1;" parent="1" source="-oYrf_uy26-qNpr954tw-46" target="-oYrf_uy26-qNpr954tw-56" edge="1">
          <mxGeometry width="50" height="50" relative="1" as="geometry">
            <mxPoint x="750" y="720" as="sourcePoint" />
            <mxPoint x="770" y="620" as="targetPoint" />
          </mxGeometry>
        </mxCell>
        <mxCell id="-oYrf_uy26-qNpr954tw-118" value="" style="endArrow=none;html=1;entryX=0.578;entryY=1.2;entryDx=0;entryDy=0;entryPerimeter=0;endFill=0;startArrow=classic;startFill=1;" parent="1" source="-oYrf_uy26-qNpr954tw-43" target="-oYrf_uy26-qNpr954tw-46" edge="1">
          <mxGeometry width="50" height="50" relative="1" as="geometry">
            <mxPoint x="760" y="800" as="sourcePoint" />
            <mxPoint x="810" y="750" as="targetPoint" />
          </mxGeometry>
        </mxCell>
        <mxCell id="-oYrf_uy26-qNpr954tw-119" value="" style="endArrow=none;html=1;endFill=0;startArrow=classic;startFill=1;exitX=0.563;exitY=0;exitDx=0;exitDy=0;exitPerimeter=0;" parent="1" source="-oYrf_uy26-qNpr954tw-116" edge="1">
          <mxGeometry width="50" height="50" relative="1" as="geometry">
            <mxPoint x="631" y="910" as="sourcePoint" />
            <mxPoint x="720" y="820" as="targetPoint" />
          </mxGeometry>
        </mxCell>
        <mxCell id="-oYrf_uy26-qNpr954tw-123" value="" style="endArrow=none;html=1;entryX=0.264;entryY=1.2;entryDx=0;entryDy=0;entryPerimeter=0;exitX=0.94;exitY=0;exitDx=0;exitDy=0;exitPerimeter=0;startArrow=classic;startFill=1;" parent="1" source="-oYrf_uy26-qNpr954tw-34" target="-oYrf_uy26-qNpr954tw-20" edge="1">
          <mxGeometry width="50" height="50" relative="1" as="geometry">
            <mxPoint x="140" y="610" as="sourcePoint" />
            <mxPoint x="250" y="570" as="targetPoint" />
          </mxGeometry>
        </mxCell>
        <mxCell id="-oYrf_uy26-qNpr954tw-125" value="" style="endArrow=none;html=1;startArrow=classic;startFill=1;" parent="1" edge="1">
          <mxGeometry width="50" height="50" relative="1" as="geometry">
            <mxPoint x="150" y="670" as="sourcePoint" />
            <mxPoint x="280" y="560" as="targetPoint" />
          </mxGeometry>
        </mxCell>
        <mxCell id="-oYrf_uy26-qNpr954tw-126" value="" style="endArrow=none;html=1;startArrow=classic;startFill=1;" parent="1" edge="1">
          <mxGeometry width="50" height="50" relative="1" as="geometry">
            <mxPoint x="190" y="700" as="sourcePoint" />
            <mxPoint x="290" y="560" as="targetPoint" />
            <Array as="points">
              <mxPoint x="260" y="600" />
            </Array>
          </mxGeometry>
        </mxCell>
        <mxCell id="-oYrf_uy26-qNpr954tw-128" value="" style="endArrow=none;html=1;endFill=0;startArrow=classic;startFill=1;" parent="1" source="-oYrf_uy26-qNpr954tw-33" edge="1">
          <mxGeometry width="50" height="50" relative="1" as="geometry">
            <mxPoint x="280" y="650" as="sourcePoint" />
            <mxPoint x="290" y="565" as="targetPoint" />
            <Array as="points">
              <mxPoint x="280" y="640" />
            </Array>
          </mxGeometry>
        </mxCell>
        <mxCell id="-oYrf_uy26-qNpr954tw-131" value="" style="endArrow=none;html=1;entryX=0.76;entryY=1.167;entryDx=0;entryDy=0;entryPerimeter=0;exitX=0.073;exitY=-0.05;exitDx=0;exitDy=0;exitPerimeter=0;startArrow=classic;startFill=1;" parent="1" source="-oYrf_uy26-qNpr954tw-47" target="-oYrf_uy26-qNpr954tw-10" edge="1">
          <mxGeometry width="50" height="50" relative="1" as="geometry">
            <mxPoint x="650" y="560" as="sourcePoint" />
            <mxPoint x="550" y="460" as="targetPoint" />
          </mxGeometry>
        </mxCell>
        <mxCell id="-oYrf_uy26-qNpr954tw-132" value="Dividating" style="text;html=1;align=center;verticalAlign=middle;resizable=0;points=[];autosize=1;fontStyle=1" parent="1" vertex="1">
          <mxGeometry x="105" y="680" width="70" height="20" as="geometry" />
        </mxCell>
        <mxCell id="-oYrf_uy26-qNpr954tw-133" value="Analogizing" style="text;html=1;align=center;verticalAlign=middle;resizable=0;points=[];autosize=1;fontStyle=1" parent="1" vertex="1">
          <mxGeometry x="185" y="820" width="80" height="20" as="geometry" />
        </mxCell>
        <mxCell id="-oYrf_uy26-qNpr954tw-138" value="" style="endArrow=none;html=1;startArrow=classic;startFill=1;" parent="1" edge="1">
          <mxGeometry width="50" height="50" relative="1" as="geometry">
            <mxPoint x="144.5" y="820" as="sourcePoint" />
            <mxPoint x="145" y="710" as="targetPoint" />
          </mxGeometry>
        </mxCell>
        <mxCell id="-oYrf_uy26-qNpr954tw-139" value="" style="endArrow=none;html=1;startArrow=classic;startFill=1;" parent="1" edge="1">
          <mxGeometry width="50" height="50" relative="1" as="geometry">
            <mxPoint x="200" y="810" as="sourcePoint" />
            <mxPoint x="200" y="740" as="targetPoint" />
          </mxGeometry>
        </mxCell>
        <mxCell id="-oYrf_uy26-qNpr954tw-140" value="Affording" style="text;html=1;align=center;verticalAlign=middle;resizable=0;points=[];autosize=1;fontStyle=1" parent="1" vertex="1">
          <mxGeometry x="45" y="845" width="70" height="20" as="geometry" />
        </mxCell>
        <mxCell id="-oYrf_uy26-qNpr954tw-141" value="" style="endArrow=none;html=1;entryX=0.54;entryY=1.15;entryDx=0;entryDy=0;entryPerimeter=0;exitX=0.42;exitY=-0.25;exitDx=0;exitDy=0;exitPerimeter=0;endFill=0;startArrow=classic;startFill=1;" parent="1" source="-oYrf_uy26-qNpr954tw-140" target="-oYrf_uy26-qNpr954tw-34" edge="1">
          <mxGeometry width="50" height="50" relative="1" as="geometry">
            <mxPoint x="57" y="770" as="sourcePoint" />
            <mxPoint x="80" y="690" as="targetPoint" />
          </mxGeometry>
        </mxCell>
        <mxCell id="-oYrf_uy26-qNpr954tw-142" value="Abducting" style="text;html=1;align=center;verticalAlign=middle;resizable=0;points=[];autosize=1;fontStyle=1" parent="1" vertex="1">
          <mxGeometry x="275" y="860" width="70" height="20" as="geometry" />
        </mxCell>
        <mxCell id="-oYrf_uy26-qNpr954tw-143" value="Explaining" style="text;html=1;align=center;verticalAlign=middle;resizable=0;points=[];autosize=1;fontStyle=1" parent="1" vertex="1">
          <mxGeometry x="353.33" y="910" width="80" height="20" as="geometry" />
        </mxCell>
        <mxCell id="-oYrf_uy26-qNpr954tw-144" value="" style="endArrow=none;html=1;entryX=0.688;entryY=1.15;entryDx=0;entryDy=0;entryPerimeter=0;exitX=0.114;exitY=-0.1;exitDx=0;exitDy=0;exitPerimeter=0;endFill=0;startArrow=classic;startFill=1;" parent="1" source="-oYrf_uy26-qNpr954tw-142" target="-oYrf_uy26-qNpr954tw-133" edge="1">
          <mxGeometry width="50" height="50" relative="1" as="geometry">
            <mxPoint x="370" y="860" as="sourcePoint" />
            <mxPoint x="420" y="810" as="targetPoint" />
          </mxGeometry>
        </mxCell>
        <mxCell id="-oYrf_uy26-qNpr954tw-146" value="" style="endArrow=none;html=1;entryX=0.459;entryY=1.167;entryDx=0;entryDy=0;entryPerimeter=0;exitX=0.734;exitY=-0.05;exitDx=0;exitDy=0;exitPerimeter=0;endFill=0;startArrow=classic;startFill=1;" parent="1" source="-oYrf_uy26-qNpr954tw-145" target="-oYrf_uy26-qNpr954tw-38" edge="1">
          <mxGeometry width="50" height="50" relative="1" as="geometry">
            <mxPoint x="490" y="900" as="sourcePoint" />
            <mxPoint x="540" y="850" as="targetPoint" />
          </mxGeometry>
        </mxCell>
        <mxCell id="-oYrf_uy26-qNpr954tw-147" value="" style="endArrow=classic;html=1;endFill=1;" parent="1" edge="1">
          <mxGeometry width="50" height="50" relative="1" as="geometry">
            <mxPoint x="150" y="850" as="sourcePoint" />
            <mxPoint x="270" y="870" as="targetPoint" />
          </mxGeometry>
        </mxCell>
        <mxCell id="-oYrf_uy26-qNpr954tw-148" value="" style="endArrow=classic;html=1;entryX=-0.067;entryY=0.4;entryDx=0;entryDy=0;entryPerimeter=0;exitX=0.94;exitY=1;exitDx=0;exitDy=0;exitPerimeter=0;endFill=1;" parent="1" source="-oYrf_uy26-qNpr954tw-140" target="-oYrf_uy26-qNpr954tw-143" edge="1">
          <mxGeometry width="50" height="50" relative="1" as="geometry">
            <mxPoint x="70" y="880" as="sourcePoint" />
            <mxPoint x="130" y="870" as="targetPoint" />
          </mxGeometry>
        </mxCell>
        <mxCell id="-oYrf_uy26-qNpr954tw-150" value="" style="endArrow=classic;html=1;endFill=1;" parent="1" source="-oYrf_uy26-qNpr954tw-145" target="-oYrf_uy26-qNpr954tw-116" edge="1">
          <mxGeometry width="50" height="50" relative="1" as="geometry">
            <mxPoint x="430" y="920" as="sourcePoint" />
            <mxPoint x="540" y="930" as="targetPoint" />
          </mxGeometry>
        </mxCell>
        <mxCell id="-oYrf_uy26-qNpr954tw-145" value="&lt;b&gt;Deducting&lt;br&gt;&lt;/b&gt;" style="text;html=1;align=center;verticalAlign=middle;resizable=0;points=[];autosize=1;" parent="1" vertex="1">
          <mxGeometry x="443.33" y="930" width="70" height="20" as="geometry" />
        </mxCell>
        <mxCell id="WnFfz9WH3Yc9ONELvpdF-1" value="" style="endArrow=classic;html=1;endFill=1;" parent="1" target="-oYrf_uy26-qNpr954tw-145" edge="1">
          <mxGeometry width="50" height="50" relative="1" as="geometry">
            <mxPoint x="430" y="920" as="sourcePoint" />
            <mxPoint x="595" y="920" as="targetPoint" />
          </mxGeometry>
        </mxCell>
        <mxCell id="WnFfz9WH3Yc9ONELvpdF-2" value="" style="endArrow=none;html=1;endFill=0;startArrow=classic;startFill=1;" parent="1" edge="1">
          <mxGeometry width="50" height="50" relative="1" as="geometry">
            <mxPoint x="390" y="770" as="sourcePoint" />
            <mxPoint x="440" y="720" as="targetPoint" />
          </mxGeometry>
        </mxCell>
        <mxCell id="pLKT94hkDXa1pngBb9HN-2" value="&lt;b&gt;&lt;font style=&quot;font-size: 24px&quot;&gt;NeoCortex&lt;/font&gt;&lt;/b&gt;" style="text;html=1;strokeColor=none;fillColor=none;align=center;verticalAlign=middle;whiteSpace=wrap;rounded=0;opacity=75;" parent="1" vertex="1">
          <mxGeometry x="433.33" y="960" width="40" height="20" as="geometry" />
        </mxCell>
        <mxCell id="pLKT94hkDXa1pngBb9HN-9" value="Story&lt;br&gt;Telling" style="text;html=1;align=center;verticalAlign=middle;resizable=0;points=[];autosize=1;fontStyle=1" parent="1" vertex="1">
          <mxGeometry x="413.3299999999999" y="829.39" width="50" height="30" as="geometry" />
        </mxCell>
        <mxCell id="pLKT94hkDXa1pngBb9HN-10" value="" style="endArrow=classic;html=1;" parent="1" target="pLKT94hkDXa1pngBb9HN-9" edge="1">
          <mxGeometry width="50" height="50" relative="1" as="geometry">
            <mxPoint x="393.33" y="800" as="sourcePoint" />
            <mxPoint x="443.33" y="750" as="targetPoint" />
          </mxGeometry>
        </mxCell>
        <mxCell id="A5Lc5H-xHai87vmfSHxy-1" value="Replaying" style="text;html=1;align=center;verticalAlign=middle;resizable=0;points=[];autosize=1;fontStyle=1" parent="1" vertex="1">
          <mxGeometry x="-20" y="440" width="70" height="20" as="geometry" />
        </mxCell>
        <mxCell id="A5Lc5H-xHai87vmfSHxy-2" value="Reorganizing" style="text;html=1;align=center;verticalAlign=middle;resizable=0;points=[];autosize=1;fontStyle=1" parent="1" vertex="1">
          <mxGeometry x="60" y="445" width="90" height="20" as="geometry" />
        </mxCell>
        <mxCell id="A5Lc5H-xHai87vmfSHxy-3" value="" style="endArrow=classic;html=1;exitX=0.12;exitY=1.05;exitDx=0;exitDy=0;exitPerimeter=0;entryX=0.6;entryY=-0.15;entryDx=0;entryDy=0;entryPerimeter=0;" parent="1" source="-oYrf_uy26-qNpr954tw-14" target="A5Lc5H-xHai87vmfSHxy-1" edge="1">
          <mxGeometry width="50" height="50" relative="1" as="geometry">
            <mxPoint x="60" y="430" as="sourcePoint" />
            <mxPoint x="110" y="380" as="targetPoint" />
          </mxGeometry>
        </mxCell>
        <mxCell id="A5Lc5H-xHai87vmfSHxy-4" value="" style="endArrow=classic;html=1;exitX=0.58;exitY=0.95;exitDx=0;exitDy=0;exitPerimeter=0;entryX=0.475;entryY=-0.15;entryDx=0;entryDy=0;entryPerimeter=0;" parent="1" source="-oYrf_uy26-qNpr954tw-14" target="A5Lc5H-xHai87vmfSHxy-2" edge="1">
          <mxGeometry width="50" height="50" relative="1" as="geometry">
            <mxPoint x="120" y="570" as="sourcePoint" />
            <mxPoint x="200" y="450" as="targetPoint" />
          </mxGeometry>
        </mxCell>
        <mxCell id="0129Et2WnWzSlYXG0bbk-2" value="Selecting" style="text;html=1;align=center;verticalAlign=middle;resizable=0;points=[];autosize=1;fontStyle=1" parent="1" vertex="1">
          <mxGeometry x="160" y="500" width="70" height="20" as="geometry" />
        </mxCell>
        <mxCell id="0129Et2WnWzSlYXG0bbk-4" value="" style="endArrow=classic;html=1;entryX=0.543;entryY=-0.05;entryDx=0;entryDy=0;entryPerimeter=0;" parent="1" source="-oYrf_uy26-qNpr954tw-15" target="0129Et2WnWzSlYXG0bbk-2" edge="1">
          <mxGeometry width="50" height="50" relative="1" as="geometry">
            <mxPoint x="20" y="520" as="sourcePoint" />
            <mxPoint x="70" y="470" as="targetPoint" />
          </mxGeometry>
        </mxCell>
        <mxCell id="0129Et2WnWzSlYXG0bbk-7" value="&lt;font style=&quot;font-size: 20px&quot;&gt;&lt;b&gt;Cerebellum&lt;br&gt;&lt;/b&gt;&lt;/font&gt;" style="text;html=1;align=center;verticalAlign=middle;resizable=0;points=[];autosize=1;" parent="1" vertex="1">
          <mxGeometry x="799.73" y="655" width="120" height="20" as="geometry" />
        </mxCell>
        <mxCell id="0129Et2WnWzSlYXG0bbk-8" value="" style="ellipse;whiteSpace=wrap;html=1;opacity=75;fillColor=#fff2cc;strokeColor=#d6b656;" parent="1" vertex="1">
          <mxGeometry x="195" y="540" width="120" height="80" as="geometry" />
        </mxCell>
        <mxCell id="0129Et2WnWzSlYXG0bbk-9" value="&lt;b style=&quot;color: rgb(0, 0, 0); font-family: helvetica; font-size: 20px; font-style: normal; letter-spacing: normal; text-align: center; text-indent: 0px; text-transform: none; word-spacing: 0px;&quot;&gt;Midbrain,&lt;br&gt;Hindbrain,&lt;br&gt;Spinal Cord&lt;/b&gt;" style="text;whiteSpace=wrap;html=1;labelBackgroundColor=#ffffff;" parent="1" vertex="1">
          <mxGeometry x="710" y="190" width="130" height="30" as="geometry" />
        </mxCell>
        <mxCell id="0129Et2WnWzSlYXG0bbk-10" value="&lt;font style=&quot;font-size: 20px&quot;&gt;&lt;b&gt;Pallium&lt;br&gt;&lt;/b&gt;&lt;/font&gt;" style="text;html=1;align=center;verticalAlign=middle;resizable=0;points=[];autosize=1;" parent="1" vertex="1">
          <mxGeometry x="353.33" y="530" width="90" height="20" as="geometry" />
        </mxCell>
        <mxCell id="0129Et2WnWzSlYXG0bbk-12" value="&lt;font style=&quot;font-size: 20px&quot;&gt;&lt;b&gt;Basal&lt;br&gt;Ganglia&lt;br&gt;&lt;/b&gt;&lt;/font&gt;" style="text;html=1;align=center;verticalAlign=middle;resizable=0;points=[];autosize=1;" parent="1" vertex="1">
          <mxGeometry x="15" y="500" width="90" height="40" as="geometry" />
        </mxCell>
        <mxCell id="0129Et2WnWzSlYXG0bbk-15" value="&lt;font style=&quot;font-size: 20px&quot;&gt;&lt;b&gt;Neuroglia&lt;br&gt;&lt;/b&gt;&lt;/font&gt;" style="text;html=1;align=center;verticalAlign=middle;resizable=0;points=[];autosize=1;" parent="1" vertex="1">
          <mxGeometry x="-60" y="290" width="110" height="20" as="geometry" />
        </mxCell>
      </root>
    </mxGraphModel>
  </diagram>
</mxfile>
